<svg xmlns="http://www.w3.org/2000/svg" version="1.1" xmlns:xlink="http://www.w3.org/1999/xlink" width="200" height="200"><svg xmlns="http://www.w3.org/2000/svg" version="1.1" xmlns:xlink="http://www.w3.org/1999/xlink" viewBox="0 0 200 200"><rect width="200" height="200" fill="url('#gradient')"></rect><defs><linearGradient id="SvgjsLinearGradient1011" gradientTransform="rotate(45 0.5 0.5)"><stop offset="0%" stop-color="#00025f"></stop><stop offset="100%" stop-color="#211c36"></stop></linearGradient></defs><g><g fill="#ffffff" transform="matrix(2.691588785046729,0,0,2.691588785046729,7.111554512353706,119.13657148753371)" stroke="#12148a" stroke-width="0"><path d="M8.94 0L5.91-5.29L4.50-3.75L4.50 0L1.07 0L1.07-14.22L4.50-14.22L4.50-7.95L5.69-9.76L8.76-14.22L13.00-14.22L8.19-7.93L13.00 0L8.94 0ZM21.66 0L19.15-5.02L17.29-5.02L17.29 0L13.87 0L13.87-14.22L19.46-14.22Q21.99-14.22 23.42-13.10Q24.84-11.97 24.84-9.92L24.84-9.92Q24.84-8.44 24.24-7.46Q23.64-6.48 22.36-5.88L22.36-5.88L25.33-0.15L25.33 0L21.66 0ZM17.29-11.57L17.29-7.67L19.46-7.67Q20.44-7.67 20.93-8.18Q21.43-8.69 21.43-9.61Q21.43-10.53 20.93-11.05Q20.43-11.57 19.46-11.57L19.46-11.57L17.29-11.57ZM35.73-8.57L35.73-6.03L30.34-6.03L30.34-2.64L36.71-2.64L36.71 0L26.91 0L26.91-14.22L36.73-14.22L36.73-11.57L30.34-11.57L30.34-8.57L35.73-8.57ZM42.78 0L38.11 0L38.11-14.22L42.69-14.22Q44.57-14.22 46.07-13.36Q47.58-12.51 48.42-10.95Q49.27-9.39 49.28-7.46L49.28-7.46L49.28-6.81Q49.28-4.85 48.45-3.31Q47.63-1.76 46.13-0.88Q44.63-0.01 42.78 0L42.78 0ZM42.69-11.57L41.53-11.57L41.53-2.64L42.72-2.64Q44.20-2.64 44.99-3.69Q45.78-4.74 45.78-6.81L45.78-6.81L45.78-7.42Q45.78-9.48 44.99-10.53Q44.20-11.57 42.69-11.57L42.69-11.57ZM54.69-14.22L54.69 0L51.27 0L51.27-14.22L54.69-14.22ZM67.95-14.22L67.95-11.57L63.68-11.57L63.68 0L60.25 0L60.25-11.57L56.06-11.57L56.06-14.22L67.95-14.22Z"></path></g></g></svg><style>@media (prefers-color-scheme: light) { :root { filter: none; } }
@media (prefers-color-scheme: dark) { :root { filter: none; } }
</style></svg>